<?xml version="1.0" encoding="UTF-8" standalone="no"?>
<!DOCTYPE svg PUBLIC "-//W3C//DTD SVG 20010904//EN"
              "http://www.w3.org/TR/2001/REC-SVG-20010904/DTD/svg10.dtd">

<svg xmlns="http://www.w3.org/2000/svg"
     width="20" height="20"
     viewBox="0 0 1408 1344">
  <path id="Selección"
        fill="#999999" stroke="black" stroke-width="1"
        d="M 825.00,86.00
           C 826.27,80.37 833.28,82.03 838.00,82.00
             844.34,81.96 850.20,79.93 856.28,78.43
             856.28,78.43 861.83,77.52 861.83,77.52
             861.83,77.52 867.08,75.54 867.08,75.54
             867.08,75.54 873.42,74.92 873.42,74.92
             873.42,74.92 879.00,73.27 879.00,73.27
             879.00,73.27 884.00,72.74 884.00,72.74
             884.00,72.74 891.00,70.94 891.00,70.94
             891.00,70.94 898.00,70.94 898.00,70.94
             898.00,70.94 904.00,69.08 904.00,69.08
             904.00,69.08 910.00,69.08 910.00,69.08
             916.73,68.16 913.06,66.02 924.00,66.00
             924.00,66.00 962.00,66.00 962.00,66.00
             973.09,65.98 967.89,64.02 979.00,64.00
             979.00,64.00 1030.00,64.00 1030.00,64.00
             1030.00,64.00 1048.00,62.00 1048.00,62.00
             1048.00,62.00 1061.00,62.00 1061.00,62.00
             1069.76,61.94 1067.75,60.38 1073.00,59.15
             1073.00,59.15 1088.00,59.15 1088.00,59.15
             1088.00,59.15 1104.00,57.32 1104.00,57.32
             1110.81,58.86 1109.57,63.92 1122.00,64.00
             1122.00,64.00 1141.00,66.10 1141.00,66.10
             1141.00,66.10 1180.00,66.10 1180.00,66.10
             1180.00,66.10 1201.00,66.10 1201.00,66.10
             1203.41,66.80 1205.71,68.10 1208.00,69.00
             1208.00,69.00 1208.00,98.00 1208.00,98.00
             1208.00,98.00 1200.00,100.70 1200.00,100.70
             1195.74,101.59 1185.17,101.19 1181.00,100.00
             1178.64,103.15 1177.86,102.93 1174.00,103.00
             1174.00,103.00 1153.00,103.00 1153.00,103.00
             1153.00,103.00 1137.00,103.00 1137.00,103.00
             1131.52,103.09 1131.45,104.01 1127.00,104.87
             1127.00,104.87 1115.00,104.87 1115.00,104.87
             1112.35,104.99 1109.43,105.19 1107.00,103.98
             1102.22,101.59 1097.78,94.41 1093.00,92.02
             1089.70,90.37 1078.24,91.00 1074.00,91.00
             1071.77,83.91 1067.20,84.63 1061.09,83.89
             1061.09,83.89 1053.96,82.07 1053.96,82.07
             1053.96,82.07 1040.00,82.07 1040.00,82.07
             1031.80,82.14 1026.50,85.51 1020.00,86.73
             1020.00,86.73 1013.00,87.26 1013.00,87.26
             1013.00,87.26 1007.00,88.87 1007.00,88.87
             1007.00,88.87 995.00,88.87 995.00,88.87
             984.46,89.02 988.14,90.88 980.00,91.15
             980.00,91.15 971.09,91.15 971.09,91.15
             966.12,92.40 966.05,95.57 957.00,93.00
             954.09,96.88 953.36,95.41 949.17,96.46
             944.23,97.70 938.84,101.03 934.00,100.00
             930.67,104.43 921.30,104.21 916.09,105.27
             910.49,106.41 911.63,109.09 904.00,107.00
             902.93,109.32 901.51,111.43 901.14,114.01
             900.77,116.61 901.64,121.18 899.40,122.98
             897.84,124.23 885.49,126.96 883.00,127.06
             883.00,127.06 874.00,127.06 874.00,127.06
             868.71,127.91 871.59,128.98 862.00,129.00
             862.00,129.00 806.00,129.00 806.00,129.00
             797.50,129.00 783.63,130.16 776.00,127.48
             773.27,126.51 770.05,125.80 768.29,123.29
             766.71,121.05 767.00,117.64 767.00,115.00
             766.99,107.67 765.06,91.13 773.30,87.57
             774.94,86.87 778.17,87.00 780.00,87.00
             789.81,86.98 817.20,87.90 825.00,86.00 Z
           M 121.77,329.00
           C 120.80,328.20 120.30,328.26 119.59,326.71
             118.57,324.46 119.05,311.41 119.00,308.00
             118.88,301.30 117.62,302.30 117.06,297.91
             117.06,297.91 117.06,280.00 117.06,280.00
             116.93,269.14 114.02,274.16 114.02,262.00
             114.02,262.00 114.02,233.28 114.02,233.28
             113.61,228.62 112.02,230.82 112.00,221.00
             112.00,221.00 112.00,167.00 112.00,167.00
             112.00,167.00 112.00,147.00 112.00,147.00
             111.98,144.66 112.21,141.51 110.40,139.74
             108.29,137.68 103.77,138.00 101.00,138.00
             101.00,138.00 89.00,138.00 89.00,138.00
             85.81,137.99 83.06,138.15 80.00,137.03
             71.35,133.88 71.52,130.11 69.32,123.00
             69.32,123.00 67.25,118.00 67.25,118.00
             66.73,115.04 66.95,103.70 67.25,100.00
             67.04,97.09 67.04,95.81 68.03,93.00
             68.60,91.37 70.63,86.35 71.58,84.97
             76.82,78.53 86.11,83.90 90.00,84.97
             91.69,85.05 94.23,85.00 96.00,84.97
             96.00,84.97 213.00,84.97 213.00,84.97
             213.00,84.97 235.00,84.97 235.00,84.97
             237.44,85.00 240.71,84.80 242.87,86.02
             248.13,88.99 248.99,95.65 249.00,101.00
             249.00,101.00 249.00,123.00 249.00,123.00
             248.80,133.62 237.93,140.86 228.00,141.00
             228.00,141.00 214.00,141.00 214.00,141.00
             211.92,140.99 207.37,140.52 205.86,142.06
             204.48,143.45 205.00,148.99 204.98,151.00
             204.98,151.00 204.98,213.00 204.98,213.00
             204.98,213.00 204.98,242.58 204.98,242.58
             204.98,242.58 206.95,251.00 206.95,251.00
             206.95,251.00 206.95,273.00 206.95,273.00
             207.01,275.62 206.79,278.42 208.00,280.83
             209.35,283.50 211.22,283.93 211.99,288.01
             211.99,288.01 211.99,296.00 211.99,296.00
             211.99,296.00 213.94,304.00 213.94,304.00
             213.94,304.00 213.94,329.00 213.94,329.00
             214.13,336.91 215.98,334.84 216.15,345.00
             216.15,345.00 216.15,360.91 216.15,360.91
             217.18,364.87 218.75,364.15 218.97,370.00
             218.97,370.00 218.97,376.72 218.97,376.72
             218.97,376.72 220.92,383.01 220.92,383.01
             220.92,383.01 220.92,390.00 220.92,390.00
             220.92,390.00 222.74,397.00 222.74,397.00
             222.74,397.00 223.27,404.00 223.27,404.00
             223.27,404.00 225.87,412.00 225.87,412.00
             225.87,412.00 225.87,422.72 225.87,422.72
             226.42,427.67 227.92,424.59 228.00,436.00
             228.06,444.13 229.27,442.65 230.07,448.00
             230.07,448.00 230.07,457.00 230.07,457.00
             230.07,457.00 232.59,464.00 232.59,464.00
             232.59,464.00 235.37,481.00 235.37,481.00
             235.37,481.00 239.51,496.00 239.51,496.00
             239.51,496.00 240.26,502.00 240.26,502.00
             240.26,502.00 241.74,508.00 241.74,508.00
             241.74,508.00 244.22,524.00 244.22,524.00
             244.22,524.00 246.51,531.00 246.51,531.00
             246.51,531.00 247.26,539.00 247.26,539.00
             247.26,539.00 248.94,545.00 248.94,545.00
             248.94,545.00 248.94,554.00 248.94,554.00
             248.94,554.00 252.81,571.00 252.81,571.00
             252.81,571.00 259.02,593.89 259.02,593.89
             259.94,595.53 260.68,595.87 262.00,597.00
             262.00,597.00 286.00,577.55 286.00,577.55
             286.00,577.55 307.00,557.05 307.00,557.05
             307.00,557.05 318.82,547.42 318.82,547.42
             321.80,544.51 323.44,542.23 323.89,538.00
             324.22,534.91 322.99,529.41 326.29,527.74
             327.76,526.99 331.15,526.98 333.00,526.63
             338.31,525.61 338.73,524.64 345.00,525.05
             351.05,525.45 349.23,526.98 359.00,526.94
             359.00,526.94 371.00,526.94 371.00,526.94
             375.19,526.40 375.62,525.21 381.00,525.02
             389.76,524.71 390.87,525.34 391.00,532.00
             391.00,532.00 391.00,542.00 391.00,542.00
             390.95,545.08 390.38,550.14 387.46,551.74
             385.03,553.50 382.46,551.86 380.00,551.74
             369.62,550.02 358.54,564.90 348.00,564.00
             345.46,567.56 343.32,567.98 340.00,571.06
             340.00,571.06 328.00,582.70 328.00,582.70
             328.00,582.70 321.76,586.78 321.76,586.78
             321.76,586.78 296.78,611.76 296.78,611.76
             296.78,611.76 292.83,618.00 292.83,618.00
             289.97,622.19 282.39,633.36 281.52,638.00
             280.63,642.81 284.30,648.69 285.83,653.09
             285.83,653.09 293.27,674.12 293.27,674.12
             293.27,674.12 302.86,696.00 302.86,696.00
             302.86,696.00 305.45,703.42 305.45,703.42
             305.45,703.42 313.23,719.17 313.23,719.17
             313.23,719.17 318.54,732.00 318.54,732.00
             318.54,732.00 332.83,761.00 332.83,761.00
             332.83,761.00 337.08,772.00 337.08,772.00
             337.08,772.00 341.83,781.00 341.83,781.00
             341.83,781.00 354.08,806.00 354.08,806.00
             354.08,806.00 364.11,825.94 364.11,825.94
             366.87,830.01 368.48,829.32 370.52,832.27
             370.52,832.27 378.51,845.95 378.51,845.95
             378.51,845.95 385.07,853.18 385.07,853.18
             385.07,853.18 394.25,866.58 394.25,866.58
             394.25,866.58 398.78,871.75 398.78,871.75
             398.78,871.75 402.30,877.01 402.30,877.01
             402.30,877.01 410.48,885.58 410.48,885.58
             410.48,885.58 414.13,890.98 414.13,890.98
             418.14,896.36 424.65,898.99 425.00,906.00
             431.47,909.15 430.46,911.43 434.47,916.11
             434.47,916.11 442.10,925.92 442.10,925.92
             442.10,925.92 449.52,933.59 449.52,933.59
             449.52,933.59 454.14,940.00 454.14,940.00
             454.14,940.00 463.48,949.58 463.48,949.58
             463.48,949.58 477.13,967.00 477.13,967.00
             477.13,967.00 487.87,978.00 487.87,978.00
             487.87,978.00 493.80,986.26 493.80,986.26
             493.80,986.26 500.00,992.04 500.00,992.04
             500.00,992.04 513.00,1005.00 513.00,1005.00
             519.30,1011.30 532.63,1025.44 539.00,1030.00
             543.87,1024.61 548.36,1032.70 551.21,1036.00
             551.21,1036.00 557.00,1042.00 557.00,1042.00
             557.00,1042.00 563.42,1048.59 563.42,1048.59
             563.42,1048.59 570.00,1053.27 570.00,1053.27
             570.00,1053.27 612.00,1086.00 612.00,1086.00
             612.00,1086.00 628.21,1097.26 628.21,1097.26
             628.21,1097.26 645.72,1107.31 645.72,1107.31
             645.72,1107.31 651.85,1111.64 651.85,1111.64
             651.85,1111.64 661.72,1116.31 661.72,1116.31
             661.72,1116.31 666.95,1120.11 666.95,1120.11
             666.95,1120.11 682.74,1128.44 682.74,1128.44
             682.74,1128.44 688.20,1132.28 688.20,1132.28
             688.20,1132.28 701.99,1139.10 701.99,1139.10
             701.99,1139.10 708.28,1143.28 708.28,1143.28
             708.28,1143.28 723.00,1150.78 723.00,1150.78
             723.00,1150.78 733.91,1157.22 733.91,1157.22
             733.91,1157.22 758.00,1169.03 758.00,1169.03
             758.00,1169.03 796.00,1190.18 796.00,1190.18
             796.00,1190.18 824.00,1201.88 824.00,1201.88
             824.00,1201.88 830.00,1204.86 830.00,1204.86
             830.00,1204.86 859.96,1214.59 859.96,1214.59
             859.96,1214.59 879.28,1221.29 879.28,1221.29
             884.12,1222.92 886.83,1222.59 890.00,1227.00
             897.25,1226.05 898.15,1229.62 904.09,1230.74
             904.09,1230.74 915.00,1231.45 915.00,1231.45
             919.37,1232.39 922.22,1234.07 926.15,1235.47
             926.15,1235.47 939.00,1239.29 939.00,1239.29
             939.00,1239.29 946.00,1240.28 946.00,1240.28
             946.00,1240.28 952.00,1241.94 952.00,1241.94
             952.00,1241.94 976.00,1241.94 976.00,1241.94
             987.15,1242.02 983.57,1243.62 989.09,1244.86
             989.09,1244.86 1004.00,1244.86 1004.00,1244.86
             1004.00,1244.86 1020.87,1247.60 1020.87,1247.60
             1022.28,1248.19 1022.99,1248.90 1023.86,1250.15
             1025.02,1251.82 1025.65,1254.10 1026.36,1256.00
             1030.03,1265.75 1029.05,1267.79 1029.00,1278.00
             1028.99,1280.33 1029.25,1284.40 1027.26,1286.01
             1025.72,1287.25 1021.94,1287.00 1020.00,1287.00
             1020.00,1287.00 896.00,1287.00 896.00,1287.00
             893.07,1286.99 889.69,1287.29 887.23,1285.41
             882.79,1282.01 885.13,1273.11 874.00,1271.21
             874.00,1271.21 839.00,1263.14 839.00,1263.14
             839.00,1263.14 824.00,1258.44 824.00,1258.44
             824.00,1258.44 818.00,1257.15 818.00,1257.15
             818.00,1257.15 800.58,1251.27 800.58,1251.27
             800.58,1251.27 795.00,1250.31 795.00,1250.31
             795.00,1250.31 785.00,1246.71 785.00,1246.71
             785.00,1246.71 778.00,1245.29 778.00,1245.29
             778.00,1245.29 767.00,1241.49 767.00,1241.49
             767.00,1241.49 761.00,1240.29 761.00,1240.29
             761.00,1240.29 737.83,1232.41 737.83,1232.41
             737.83,1232.41 720.97,1227.08 720.97,1227.08
             720.97,1227.08 713.72,1223.73 713.72,1223.73
             713.72,1223.73 703.17,1220.43 703.17,1220.43
             703.17,1220.43 692.00,1215.01 692.00,1215.01
             692.00,1215.01 685.00,1212.64 685.00,1212.64
             685.00,1212.64 675.42,1207.59 675.42,1207.59
             675.42,1207.59 669.99,1205.97 669.99,1205.97
             669.99,1205.97 664.00,1202.13 664.00,1202.13
             664.00,1202.13 657.00,1198.37 657.00,1198.37
             657.00,1198.37 646.00,1190.74 646.00,1190.74
             646.00,1190.74 639.00,1186.95 639.00,1186.95
             639.00,1186.95 632.00,1181.63 632.00,1181.63
             632.00,1181.63 625.00,1177.37 625.00,1177.37
             625.00,1177.37 618.00,1172.05 618.00,1172.05
             618.00,1172.05 609.00,1166.87 609.00,1166.87
             601.55,1161.59 598.67,1156.64 589.00,1157.02
             581.13,1157.33 585.46,1159.98 574.00,1160.00
             574.00,1160.00 534.00,1160.00 534.00,1160.00
             522.96,1160.02 526.46,1161.71 518.83,1166.39
             518.83,1166.39 502.00,1174.83 502.00,1174.83
             502.00,1174.83 490.00,1178.95 490.00,1178.95
             481.41,1182.24 469.86,1187.59 461.00,1189.55
             461.00,1189.55 454.00,1190.30 454.00,1190.30
             454.00,1190.30 447.00,1192.77 447.00,1192.77
             447.00,1192.77 440.00,1192.77 440.00,1192.77
             440.00,1192.77 433.99,1194.72 433.99,1194.72
             429.56,1195.58 416.31,1195.22 412.00,1194.00
             409.88,1197.17 408.70,1196.93 405.00,1197.00
             405.00,1197.00 377.00,1197.00 377.00,1197.00
             372.88,1196.99 364.55,1196.46 362.02,1192.69
             361.14,1191.38 361.02,1189.49 360.61,1188.00
             358.25,1179.40 357.86,1183.56 358.00,1173.00
             358.03,1170.85 357.89,1167.48 359.74,1165.99
             361.23,1164.79 365.12,1164.95 367.00,1165.02
             372.35,1165.20 372.82,1166.41 377.00,1166.94
             377.00,1166.94 396.00,1166.94 396.00,1166.94
             396.00,1166.94 414.00,1165.00 414.00,1165.00
             417.05,1164.99 423.26,1165.27 425.91,1164.45
             425.91,1164.45 430.28,1162.50 430.28,1162.50
             430.28,1162.50 439.28,1160.43 439.28,1160.43
             439.28,1160.43 453.83,1157.46 453.83,1157.46
             453.83,1157.46 472.00,1150.00 472.00,1150.00
             466.78,1150.00 449.00,1147.06 444.17,1145.46
             444.17,1145.46 439.83,1143.54 439.83,1143.54
             439.83,1143.54 431.72,1141.71 431.72,1141.71
             427.40,1140.29 421.64,1139.96 419.00,1136.00
             413.74,1136.88 411.14,1134.81 406.00,1133.31
             406.00,1133.31 397.00,1131.24 397.00,1131.24
             397.00,1131.24 390.00,1127.88 390.00,1127.88
             390.00,1127.88 380.00,1124.12 380.00,1124.12
             380.00,1124.12 373.00,1121.78 373.00,1121.78
             373.00,1121.78 360.91,1115.81 360.91,1115.81
             360.91,1115.81 353.00,1112.97 353.00,1112.97
             353.00,1112.97 331.17,1102.18 331.17,1102.18
             331.17,1102.18 323.99,1097.63 323.99,1097.63
             323.99,1097.63 308.96,1089.97 308.96,1089.97
             308.96,1089.97 289.82,1076.40 289.82,1076.40
             289.82,1076.40 284.00,1072.59 284.00,1072.59
             281.31,1070.52 276.85,1065.20 274.00,1064.51
             274.00,1064.51 261.00,1065.89 261.00,1065.89
             261.00,1065.89 234.00,1065.89 234.00,1065.89
             234.00,1065.89 225.00,1063.00 225.00,1063.00
             225.00,1063.00 223.00,1045.00 223.00,1045.00
             216.62,1040.21 221.25,1030.68 224.00,1025.00
             224.00,1025.00 236.00,1023.00 236.00,1023.00
             236.00,1023.00 260.00,1023.00 260.00,1023.00
             260.00,1023.00 278.00,1021.00 278.00,1021.00
             278.00,1021.00 327.00,1021.00 327.00,1021.00
             327.00,1021.00 351.00,1021.00 351.00,1021.00
             351.00,1021.00 357.40,1022.02 357.40,1022.02
             357.40,1022.02 359.00,1030.00 359.00,1030.00
             359.00,1030.00 359.00,1053.00 359.00,1053.00
             359.00,1053.00 371.41,1061.91 371.41,1061.91
             371.41,1061.91 380.72,1067.86 380.72,1067.86
             380.72,1067.86 391.66,1075.59 391.66,1075.59
             391.66,1075.59 398.72,1079.28 398.72,1079.28
             398.72,1079.28 405.72,1084.12 405.72,1084.12
             405.72,1084.12 430.58,1096.42 430.58,1096.42
             430.58,1096.42 435.73,1098.06 435.73,1098.06
             435.73,1098.06 447.26,1103.82 447.26,1103.82
             447.26,1103.82 452.09,1105.14 452.09,1105.14
             452.09,1105.14 459.00,1108.26 459.00,1108.26
             459.00,1108.26 483.00,1116.17 483.00,1116.17
             483.00,1116.17 494.00,1120.29 494.00,1120.29
             494.00,1120.29 502.00,1121.26 502.00,1121.26
             502.00,1121.26 516.00,1125.00 516.00,1125.00
             515.93,1120.35 520.00,1116.91 524.00,1115.00
             522.93,1113.55 522.29,1112.55 520.90,1111.30
             520.90,1111.30 514.75,1106.82 514.75,1106.82
             514.75,1106.82 506.83,1099.32 506.83,1099.32
             506.83,1099.32 500.26,1094.63 500.26,1094.63
             500.26,1094.63 492.49,1087.05 492.49,1087.05
             492.49,1087.05 485.00,1081.74 485.00,1081.74
             485.00,1081.74 476.00,1073.14 476.00,1073.14
             476.00,1073.14 468.72,1067.74 468.72,1067.74
             468.72,1067.74 457.99,1057.14 457.99,1057.14
             457.99,1057.14 450.90,1052.19 450.90,1052.19
             450.90,1052.19 441.02,1042.42 441.02,1042.42
             441.02,1042.42 424.99,1026.47 424.99,1026.47
             420.44,1022.45 418.15,1024.02 417.00,1017.00
             411.91,1016.17 410.83,1015.09 410.00,1010.00
             404.31,1009.71 400.99,1004.06 397.55,999.95
             397.55,999.95 375.00,977.00 375.00,977.00
             366.69,968.69 368.54,969.50 362.46,962.18
             362.46,962.18 354.10,953.41 354.10,953.41
             354.10,953.41 336.20,929.28 336.20,929.28
             333.13,925.32 329.18,923.20 326.72,920.55
             320.15,913.45 314.63,904.98 309.17,897.00
             309.17,897.00 296.33,876.08 296.33,876.08
             292.93,870.05 288.70,860.80 284.00,856.00
             284.00,856.00 285.00,853.00 285.00,853.00
             285.00,853.00 279.25,845.00 279.25,845.00
             279.25,845.00 265.68,820.04 265.68,820.04
             265.68,820.04 259.62,810.00 259.62,810.00
             259.62,810.00 254.11,798.95 254.11,798.95
             254.11,798.95 250.31,793.72 250.31,793.72
             250.31,793.72 246.13,784.75 246.13,784.75
             246.13,784.75 226.13,745.00 226.13,745.00
             226.13,745.00 222.00,733.00 222.00,733.00
             222.00,733.00 220.00,733.00 220.00,733.00
             220.00,733.00 209.94,751.00 209.94,751.00
             209.94,751.00 206.69,759.00 206.69,759.00
             206.69,759.00 199.53,772.83 199.53,772.83
             199.53,772.83 195.32,779.04 195.32,779.04
             195.32,779.04 189.45,792.58 189.45,792.58
             189.45,792.58 178.59,816.00 178.59,816.00
             178.59,816.00 171.92,829.83 171.92,829.83
             170.62,832.08 168.16,835.29 168.04,837.95
             167.74,844.59 176.42,838.86 179.98,845.11
             181.10,847.08 180.98,849.80 181.00,852.00
             181.00,852.00 181.00,873.00 181.00,873.00
             181.00,873.00 139.00,873.00 139.00,873.00
             139.00,873.00 123.00,871.00 123.00,871.00
             123.00,871.00 96.00,871.00 96.00,871.00
             94.51,865.25 91.46,863.10 96.00,860.00
             94.98,855.57 94.89,855.07 97.00,851.00
             95.14,849.81 91.75,847.39 94.62,845.02
             96.20,843.71 99.99,844.09 102.00,843.95
             104.92,843.74 109.35,842.50 111.79,840.88
             116.17,837.97 116.47,833.11 118.40,828.72
             121.95,820.63 123.72,820.26 126.96,814.00
             126.96,814.00 135.49,799.00 135.49,799.00
             135.49,799.00 140.13,790.00 140.13,790.00
             140.13,790.00 144.86,783.00 144.86,783.00
             144.86,783.00 147.85,777.17 147.85,777.17
             147.85,777.17 152.04,770.96 152.04,770.96
             152.04,770.96 157.17,760.00 157.17,760.00
             157.17,760.00 166.70,741.00 166.70,741.00
             166.70,741.00 170.63,730.96 170.63,730.96
             170.63,730.96 178.53,715.00 178.53,715.00
             183.37,704.80 195.58,684.71 195.58,674.00
             195.58,667.81 190.75,654.77 188.66,648.58
             188.66,648.58 185.29,635.00 185.29,635.00
             185.29,635.00 181.50,624.72 181.50,624.72
             181.50,624.72 180.27,618.28 180.27,618.28
             180.27,618.28 176.71,604.08 176.71,604.08
             175.60,599.48 173.82,600.56 175.00,595.00
             169.63,590.97 169.50,577.57 167.46,571.17
             167.46,571.17 165.28,565.91 165.28,565.91
             165.28,565.91 160.46,544.00 160.46,544.00
             160.46,544.00 156.24,529.83 156.24,529.83
             156.24,529.83 155.55,523.00 155.55,523.00
             155.55,523.00 153.53,512.00 153.53,512.00
             151.69,504.33 149.80,505.04 152.00,496.00
             147.26,492.44 149.51,488.34 148.87,483.04
             148.87,483.04 147.05,476.83 147.05,476.83
             147.05,476.83 147.05,470.00 147.05,470.00
             147.05,470.00 144.46,459.00 144.46,459.00
             144.46,459.00 140.45,445.00 140.45,445.00
             140.45,445.00 137.46,429.00 137.46,429.00
             137.46,429.00 135.54,424.00 135.54,424.00
             135.54,424.00 130.46,406.00 130.46,406.00
             127.78,399.59 126.06,402.23 126.00,393.00
             126.00,393.00 126.00,378.00 126.00,378.00
             126.00,378.00 123.85,364.00 123.85,364.00
             123.85,364.00 123.85,353.00 123.85,353.00
             123.85,353.00 121.77,347.00 121.77,347.00
             120.35,342.78 120.80,333.22 121.77,329.00 Z
           M 568.00,316.00
           C 568.25,308.65 570.43,307.04 574.12,301.09
             583.57,285.86 588.55,282.45 601.00,270.00
             601.00,270.00 620.14,250.28 620.14,250.28
             622.57,246.25 619.25,239.16 622.74,235.57
             626.03,232.24 634.11,234.72 638.00,235.57
             650.14,238.14 663.62,232.69 675.00,239.00
             679.42,233.11 688.96,235.74 691.99,242.00
             693.58,245.29 693.00,255.86 693.00,260.00
             682.53,260.04 672.75,263.72 664.28,269.88
             664.28,269.88 658.98,274.46 658.98,274.46
             658.98,274.46 653.75,277.78 653.75,277.78
             653.75,277.78 635.00,296.86 635.00,296.86
             635.00,296.86 644.00,296.86 644.00,296.86
             644.00,296.86 651.00,294.41 651.00,294.41
             655.30,293.42 663.77,293.80 668.00,295.00
             671.58,290.22 679.58,292.01 685.00,292.00
             694.64,291.98 691.81,290.72 697.09,289.92
             697.09,289.92 706.91,289.92 706.91,289.92
             706.91,289.92 719.04,285.51 719.04,285.51
             719.04,285.51 725.00,284.74 725.00,284.74
             732.98,283.39 731.00,283.02 740.00,283.00
             753.06,282.97 745.33,280.02 759.00,280.02
             759.00,280.02 775.72,280.02 775.72,280.02
             775.72,280.02 783.00,278.07 783.00,278.07
             783.00,278.07 802.00,278.07 802.00,278.07
             802.00,278.07 820.00,276.00 820.00,276.00
             820.00,276.00 858.00,276.00 858.00,276.00
             864.52,276.11 863.46,277.00 868.00,277.94
             868.00,277.94 880.99,277.94 880.99,277.94
             888.01,279.05 882.03,280.02 895.00,280.00
             907.23,279.99 934.44,279.11 945.00,281.00
             943.08,277.87 940.45,276.75 937.72,274.24
             932.48,269.44 927.60,264.07 921.00,261.00
             917.40,259.34 914.03,260.44 911.00,259.69
             904.06,257.95 902.84,252.15 903.02,246.00
             903.30,236.28 909.59,237.19 917.00,235.29
             926.83,232.77 954.31,233.98 966.00,234.00
             968.73,234.00 972.81,233.42 974.26,236.29
             975.81,239.37 973.91,249.77 978.59,257.00
             984.32,265.84 1000.17,275.35 1003.00,285.10
             1003.00,285.10 1020.00,285.10 1020.00,285.10
             1020.00,285.10 1033.00,287.68 1033.00,287.68
             1033.00,287.68 1039.00,289.97 1039.00,289.97
             1039.00,289.97 1046.00,289.97 1046.00,289.97
             1046.00,289.97 1052.00,291.63 1052.00,291.63
             1052.00,291.63 1057.96,292.40 1057.96,292.40
             1057.96,292.40 1076.00,298.24 1076.00,298.24
             1080.68,299.12 1081.79,296.90 1086.00,297.31
             1086.00,297.31 1114.01,306.49 1114.01,306.49
             1114.01,306.49 1133.00,315.91 1133.00,315.91
             1133.00,315.91 1141.42,319.03 1141.42,319.03
             1141.42,319.03 1156.28,326.27 1156.28,326.27
             1156.28,326.27 1172.08,331.71 1172.08,331.71
             1172.08,331.71 1185.72,334.43 1185.72,334.43
             1185.72,334.43 1196.15,338.47 1196.15,338.47
             1196.15,338.47 1208.72,341.43 1208.72,341.43
             1208.72,341.43 1217.58,344.46 1217.58,344.46
             1217.58,344.46 1223.84,345.55 1223.84,345.55
             1223.84,345.55 1228.15,347.47 1228.15,347.47
             1228.15,347.47 1240.91,351.42 1240.91,351.42
             1240.91,351.42 1247.09,354.50 1247.09,354.50
             1247.09,354.50 1262.04,359.58 1262.04,359.58
             1265.19,360.83 1276.10,364.12 1277.99,365.86
             1281.73,369.33 1281.99,374.29 1282.00,379.00
             1282.00,379.00 1282.00,397.00 1282.00,397.00
             1281.98,399.59 1282.19,402.42 1280.40,404.53
             1277.42,408.04 1272.17,407.99 1268.00,408.00
             1268.00,408.00 1158.00,408.00 1158.00,408.00
             1146.83,407.98 1145.51,404.91 1137.00,398.37
             1137.00,398.37 1130.74,393.90 1130.74,393.90
             1130.74,393.90 1111.91,375.05 1111.91,375.05
             1107.52,370.94 1106.36,371.14 1103.18,368.57
             1103.18,368.57 1097.68,363.38 1097.68,363.38
             1097.68,363.38 1077.32,349.06 1077.32,349.06
             1072.96,346.05 1073.48,344.81 1066.58,341.30
             1066.58,341.30 1058.17,338.22 1058.17,338.22
             1058.17,338.22 1042.00,331.00 1042.00,331.00
             1045.91,339.10 1055.82,347.54 1056.00,357.00
             1060.79,360.05 1065.25,369.84 1067.84,374.99
             1067.84,374.99 1072.25,381.88 1072.25,381.88
             1072.25,381.88 1081.75,400.29 1081.75,400.29
             1081.75,400.29 1085.00,408.98 1085.00,408.98
             1087.21,412.93 1091.72,414.31 1095.00,417.14
             1097.34,419.17 1103.72,425.58 1105.46,428.00
             1105.46,428.00 1109.29,434.00 1109.29,434.00
             1111.07,436.23 1114.44,438.89 1115.43,441.28
             1116.40,443.64 1116.00,457.49 1116.00,461.00
             1116.00,461.00 1076.00,461.00 1076.00,461.00
             1074.18,461.00 1070.88,461.13 1069.27,460.40
             1066.33,459.07 1061.52,450.06 1060.00,447.00
             1060.00,447.00 1043.20,413.28 1043.20,413.28
             1043.20,413.28 1033.96,399.00 1033.96,399.00
             1033.96,399.00 1015.90,365.08 1015.90,365.08
             1015.90,365.08 1004.54,350.01 1004.54,350.01
             997.47,340.02 990.06,328.93 980.04,321.55
             977.64,319.78 965.49,313.88 963.00,313.31
             963.00,313.31 953.04,312.72 953.04,312.72
             947.15,311.57 952.10,311.18 943.00,310.97
             934.41,310.78 938.74,308.02 927.00,308.00
             927.00,308.00 892.00,308.00 892.00,308.00
             881.41,308.02 884.91,309.76 878.96,310.87
             878.96,310.87 865.28,310.87 865.28,310.87
             861.63,311.30 861.67,312.76 856.00,312.98
             846.06,313.37 847.19,311.40 842.72,310.98
             842.72,310.98 835.00,310.98 835.00,310.98
             835.00,310.98 817.28,310.98 817.28,310.98
             812.35,311.42 808.55,315.51 800.00,310.98
             799.25,311.55 799.39,311.85 797.78,312.46
             797.78,312.46 782.00,315.00 782.00,315.00
             775.21,315.10 768.63,315.88 762.00,317.29
             756.60,318.45 758.73,319.94 750.00,320.00
             737.35,320.08 742.10,321.18 735.91,321.94
             735.91,321.94 721.00,321.94 721.00,321.94
             715.90,322.01 709.90,323.08 705.00,324.54
             698.07,326.60 699.32,328.02 691.00,326.00
             688.25,330.10 686.32,328.49 682.09,329.26
             682.09,329.26 676.83,331.01 676.83,331.01
             676.83,331.01 671.09,331.01 671.09,331.01
             666.45,332.11 668.81,332.39 662.00,333.05
             657.05,333.54 657.27,334.97 653.83,335.73
             653.83,335.73 648.00,336.26 648.00,336.26
             648.00,336.26 642.00,337.74 642.00,337.74
             642.00,337.74 636.00,338.45 636.00,338.45
             636.00,338.45 622.00,342.46 622.00,342.46
             622.00,342.46 608.17,345.46 608.17,345.46
             608.17,345.46 599.17,347.49 599.17,347.49
             594.76,348.78 596.87,349.60 590.00,350.00
             590.00,350.00 590.00,354.00 590.00,354.00
             590.00,354.00 585.00,355.00 585.00,355.00
             584.77,358.46 584.34,358.42 581.00,359.00
             578.30,368.30 569.23,376.66 564.56,385.00
             564.56,385.00 554.97,404.00 554.97,404.00
             554.97,404.00 544.44,421.09 544.44,421.09
             544.44,421.09 537.49,437.00 537.49,437.00
             532.19,447.81 526.21,458.37 522.87,470.00
             521.28,475.53 519.01,487.37 519.00,493.00
             518.99,495.67 519.48,503.50 517.98,505.40
             516.41,507.38 512.30,507.00 510.00,507.00
             510.00,507.00 467.00,507.00 467.00,507.00
             463.43,507.00 453.88,507.54 451.31,505.40
             447.75,502.42 449.78,498.59 450.55,495.00
             452.01,488.14 449.37,488.04 454.82,479.17
             454.82,479.17 475.31,453.02 475.31,453.02
             475.31,453.02 490.67,429.17 490.67,429.17
             490.67,429.17 500.03,408.84 500.03,408.84
             500.03,408.84 508.11,397.05 508.11,397.05
             508.11,397.05 511.33,390.93 511.33,390.93
             514.79,384.85 517.28,382.02 520.00,375.00
             520.00,375.00 492.00,384.82 492.00,384.82
             492.00,384.82 482.00,387.95 482.00,387.95
             482.00,387.95 474.00,391.61 474.00,391.61
             466.83,394.25 450.39,401.31 445.13,406.26
             439.18,411.85 438.01,418.56 436.74,426.00
             435.81,431.50 435.05,429.92 435.00,437.00
             434.97,442.13 434.76,448.40 430.48,452.11
             427.65,454.56 424.31,453.68 421.00,454.14
             414.70,455.01 417.64,456.98 407.00,457.00
             407.00,457.00 377.00,457.00 377.00,457.00
             377.00,457.00 359.00,459.00 359.00,459.00
             359.00,459.00 287.00,459.00 287.00,459.00
             287.00,459.00 269.00,459.00 269.00,459.00
             267.49,458.97 265.67,459.00 264.26,458.41
             261.46,457.23 251.69,447.97 250.60,445.00
             249.88,443.06 250.00,440.09 250.00,438.00
             250.00,438.00 250.00,414.00 250.00,414.00
             250.03,412.50 249.99,410.69 250.57,409.28
             251.54,406.95 260.95,397.54 263.28,396.57
             265.00,395.86 268.11,396.00 270.00,396.00
             270.00,396.00 291.00,396.00 291.00,396.00
             291.00,396.00 307.00,398.00 307.00,398.00
             310.06,398.02 317.43,398.27 320.00,397.42
             320.00,397.42 336.17,388.77 336.17,388.77
             336.17,388.77 352.00,381.12 352.00,381.12
             352.00,381.12 359.00,378.78 359.00,378.78
             359.00,378.78 368.00,374.13 368.00,374.13
             368.00,374.13 375.00,371.86 375.00,371.86
             375.00,371.86 381.00,368.88 381.00,368.88
             384.22,367.53 402.05,362.07 405.00,362.00
             408.33,357.38 410.85,358.10 415.72,356.27
             415.72,356.27 423.99,352.49 423.99,352.49
             423.99,352.49 438.91,347.86 438.91,347.86
             443.96,346.23 443.18,344.91 449.00,346.00
             451.37,342.43 460.82,340.01 465.17,339.24
             468.19,338.70 469.54,339.39 472.83,338.10
             472.83,338.10 498.92,331.71 498.92,331.71
             498.92,331.71 505.09,329.28 505.09,329.28
             505.09,329.28 520.00,326.55 520.00,326.55
             520.00,326.55 529.00,324.51 529.00,324.51
             529.00,324.51 535.00,322.18 535.00,322.18
             535.00,322.18 540.58,322.18 540.58,322.18
             540.58,322.18 545.04,320.51 545.04,320.51
             549.39,319.31 564.31,315.70 568.00,316.00 Z
           M 635.00,297.00
           C 635.00,297.00 634.00,297.00 634.00,297.00
             634.00,297.00 635.00,298.00 635.00,298.00
             635.00,298.00 635.00,297.00 635.00,297.00 Z
           M 787.09,437.81
           C 792.65,436.38 802.88,437.00 809.00,437.00
             809.00,437.00 848.00,437.00 848.00,437.00
             851.34,437.01 854.97,436.74 857.71,439.03
             861.27,442.01 860.30,448.59 856.52,451.01
             854.60,452.24 851.24,452.00 849.00,452.00
             849.00,452.00 805.00,452.00 805.00,452.00
             793.39,452.02 797.61,453.98 786.00,454.00
             786.00,454.00 738.00,454.00 738.00,454.00
             724.53,454.02 730.97,456.97 718.00,457.00
             718.00,457.00 668.00,457.00 668.00,457.00
             659.75,457.14 662.91,459.09 649.00,459.00
             642.97,458.96 637.00,457.84 638.24,450.04
             639.37,442.94 645.93,444.48 650.96,443.87
             656.46,443.21 653.33,442.02 663.00,442.00
             663.00,442.00 710.00,442.00 710.00,442.00
             723.06,441.97 715.33,439.02 729.00,439.00
             729.00,439.00 767.00,439.00 767.00,439.00
             773.36,439.00 781.15,439.96 787.09,437.81 Z
           M 931.00,545.00
           C 930.47,540.10 924.88,535.01 922.31,530.72
             922.31,530.72 918.83,524.09 918.83,524.09
             918.83,524.09 901.74,499.00 901.74,499.00
             901.74,499.00 898.00,492.09 898.00,492.09
             894.29,485.91 886.39,476.73 895.11,470.60
             899.95,467.19 904.46,470.98 907.24,475.00
             907.24,475.00 911.63,483.00 911.63,483.00
             911.63,483.00 923.16,500.17 923.16,500.17
             923.16,500.17 926.90,507.00 926.90,507.00
             926.90,507.00 943.51,532.00 943.51,532.00
             943.51,532.00 954.91,552.09 954.91,552.09
             954.91,552.09 960.24,559.00 960.24,559.00
             960.24,559.00 963.80,565.70 963.80,565.70
             963.80,565.70 971.54,576.92 971.54,576.92
             971.54,576.92 975.70,584.68 975.70,584.68
             975.70,584.68 988.86,604.00 988.86,604.00
             988.86,604.00 991.72,609.68 991.72,609.68
             995.03,615.16 1000.87,620.63 1002.44,627.00
             1003.94,633.08 998.56,636.62 993.00,635.85
             987.44,635.08 982.46,624.86 980.18,620.09
             980.18,620.09 967.50,601.43 967.50,601.43
             967.50,601.43 960.30,589.34 960.30,589.34
             960.30,589.34 951.30,574.28 951.30,574.28
             951.30,574.28 939.41,557.00 939.41,557.00
             935.36,550.94 937.16,549.99 931.00,545.00 Z
           M 579.00,554.00
           C 574.20,558.91 570.16,567.96 566.67,574.07
             566.67,574.07 551.59,599.92 551.59,599.92
             549.73,603.83 548.91,603.81 546.89,606.95
             546.89,606.95 538.84,620.99 538.84,620.99
             535.95,626.01 532.24,634.45 528.17,638.52
             522.22,644.45 512.82,638.37 515.30,628.09
             515.99,625.22 518.40,623.38 519.75,620.82
             519.75,620.82 522.31,615.28 522.31,615.28
             522.31,615.28 526.11,610.05 526.11,610.05
             526.11,610.05 529.87,602.96 529.87,602.96
             529.87,602.96 533.64,597.17 533.64,597.17
             533.64,597.17 545.33,575.95 545.33,575.95
             545.33,575.95 549.67,569.83 549.67,569.83
             549.67,569.83 554.47,560.04 554.47,560.04
             554.47,560.04 558.68,553.83 558.68,553.83
             558.68,553.83 564.17,543.09 564.17,543.09
             564.17,543.09 577.36,521.00 577.36,521.00
             577.36,521.00 584.42,509.00 584.42,509.00
             584.42,509.00 592.21,496.00 592.21,496.00
             595.71,489.63 598.63,482.25 604.10,477.15
             611.27,470.47 618.93,476.11 617.76,484.00
             617.35,486.78 612.84,493.82 611.17,497.17
             611.17,497.17 589.21,534.51 589.21,534.51
             585.88,539.64 582.98,547.43 578.00,551.00
             578.00,551.00 579.00,554.00 579.00,554.00 Z
           M 758.00,657.00
           C 758.92,649.98 760.70,649.64 764.11,644.09
             764.11,644.09 767.80,637.28 767.80,637.28
             767.80,637.28 771.28,632.68 771.28,632.68
             771.28,632.68 774.31,626.28 774.31,626.28
             774.31,626.28 778.11,621.05 778.11,621.05
             778.11,621.05 781.86,614.00 781.86,614.00
             781.86,614.00 798.15,587.09 798.15,587.09
             798.15,587.09 801.88,579.96 801.88,579.96
             801.88,579.96 812.28,563.72 812.28,563.72
             812.28,563.72 815.75,557.00 815.75,557.00
             815.75,557.00 819.86,551.00 819.86,551.00
             819.86,551.00 822.88,545.00 822.88,545.00
             822.88,545.00 833.62,527.91 833.62,527.91
             835.94,524.21 839.07,520.04 844.00,520.25
             850.25,520.53 852.12,527.65 850.50,532.71
             850.09,533.98 848.57,536.51 847.82,537.72
             847.82,537.72 839.75,550.00 839.75,550.00
             839.75,550.00 836.15,556.58 836.15,556.58
             836.15,556.58 832.88,561.04 832.88,561.04
             832.88,561.04 827.69,571.72 827.69,571.72
             827.69,571.72 820.21,582.51 820.21,582.51
             816.88,587.64 813.98,595.43 809.00,599.00
             808.86,606.28 802.49,612.10 798.88,618.04
             798.88,618.04 795.86,624.00 795.86,624.00
             795.86,624.00 776.00,657.06 776.00,657.06
             776.00,657.06 789.00,657.06 789.00,657.06
             794.90,657.79 792.37,658.98 802.00,659.00
             802.00,659.00 881.00,659.00 881.00,659.00
             883.35,659.00 886.80,658.81 888.85,660.02
             893.13,662.55 892.76,669.41 888.85,672.26
             886.10,674.28 882.25,673.99 879.00,674.00
             879.00,674.00 792.00,674.00 792.00,674.00
             784.57,673.90 776.32,668.36 769.00,672.02
             766.75,673.15 764.79,675.27 763.00,677.00
             768.66,681.35 767.67,682.50 770.88,688.00
             770.88,688.00 782.82,706.83 782.82,706.83
             782.82,706.83 797.15,729.17 797.15,729.17
             797.15,729.17 808.63,749.00 808.63,749.00
             808.63,749.00 829.83,782.96 829.83,782.96
             832.93,788.03 842.40,802.33 843.53,807.00
             844.73,811.92 843.80,817.05 838.00,817.85
             831.16,818.80 829.31,814.88 826.14,810.09
             826.14,810.09 813.79,790.51 813.79,790.51
             813.79,790.51 800.97,769.04 800.97,769.04
             800.97,769.04 792.75,757.00 792.75,757.00
             792.75,757.00 789.15,750.09 789.15,750.09
             789.15,750.09 777.99,732.09 777.99,732.09
             777.99,732.09 773.84,725.91 773.84,725.91
             773.84,725.91 767.14,715.00 767.14,715.00
             767.14,715.00 760.74,704.00 760.74,704.00
             757.79,699.36 758.21,696.77 753.00,694.00
             748.55,704.68 740.80,713.93 735.20,724.00
             735.20,724.00 707.89,768.91 707.89,768.91
             707.89,768.91 704.71,774.92 704.71,774.92
             704.71,774.92 700.59,781.04 700.59,781.04
             700.59,781.04 697.15,787.58 697.15,787.58
             697.15,787.58 686.75,804.00 686.75,804.00
             685.26,806.36 683.81,810.33 682.03,812.01
             678.54,815.32 671.38,814.90 671.02,806.00
             670.94,803.97 670.95,800.91 671.58,799.00
             673.31,793.79 683.64,778.18 686.99,773.00
             686.99,773.00 701.09,748.00 701.09,748.00
             701.09,748.00 708.50,737.04 708.50,737.04
             708.50,737.04 712.88,728.96 712.88,728.96
             712.88,728.96 716.86,723.00 716.86,723.00
             716.86,723.00 723.17,711.00 723.17,711.00
             723.17,711.00 730.11,701.09 730.11,701.09
             730.11,701.09 736.96,689.00 736.96,689.00
             738.01,687.31 742.92,679.33 743.16,677.96
             743.47,676.17 742.40,672.90 742.00,671.00
             742.00,671.00 625.00,671.00 625.00,671.00
             618.07,670.90 618.97,669.90 614.00,669.21
             608.12,668.39 594.02,670.83 596.33,660.02
             598.07,651.89 612.60,653.89 619.00,654.00
             628.29,654.17 624.24,656.98 636.00,657.00
             636.00,657.00 731.00,657.00 731.00,657.00
             728.38,649.94 720.47,636.55 716.19,630.09
             716.19,630.09 712.69,625.49 712.69,625.49
             712.69,625.49 709.28,618.32 709.28,618.32
             709.28,618.32 705.80,613.72 705.80,613.72
             705.80,613.72 702.11,606.91 702.11,606.91
             702.11,606.91 694.68,595.61 694.68,595.61
             694.68,595.61 690.83,588.58 690.83,588.58
             690.83,588.58 687.31,583.71 687.31,583.71
             687.31,583.71 684.28,577.30 684.28,577.30
             684.28,577.30 675.29,564.91 675.29,564.91
             675.29,564.91 671.75,558.05 671.75,558.05
             668.86,553.31 664.68,548.71 664.12,542.91
             663.64,537.97 666.17,533.05 671.91,534.33
             677.94,535.68 681.96,544.91 684.72,549.72
             684.72,549.72 688.95,555.85 688.95,555.85
             688.95,555.85 703.10,579.42 703.10,579.42
             703.10,579.42 711.71,592.09 711.71,592.09
             711.71,592.09 718.86,604.00 718.86,604.00
             718.86,604.00 722.24,610.49 722.24,610.49
             726.12,616.21 736.71,629.82 737.00,636.00
             745.49,641.41 745.92,656.02 758.00,657.00 Z
           M 1211.00,606.00
           C 1211.00,606.00 1199.00,606.00 1199.00,606.00
             1193.09,606.10 1182.94,611.32 1180.22,602.91
             1180.02,601.53 1180.02,599.45 1180.22,598.00
             1179.88,589.13 1178.65,571.65 1181.72,564.00
             1182.65,561.68 1183.42,558.18 1185.31,556.60
             1187.58,554.71 1191.21,555.01 1194.00,555.00
             1194.00,555.00 1252.00,555.00 1252.00,555.00
             1262.44,554.98 1259.75,553.06 1269.00,553.00
             1269.00,553.00 1294.00,553.00 1294.00,553.00
             1294.00,553.00 1322.00,553.00 1322.00,553.00
             1332.50,553.02 1329.95,555.17 1341.00,555.00
             1350.13,554.85 1355.79,548.91 1356.00,560.00
             1356.00,560.00 1356.00,594.00 1356.00,594.00
             1355.98,597.42 1355.92,601.84 1353.23,604.40
             1351.18,606.36 1347.65,605.99 1345.00,606.00
             1345.00,606.00 1317.00,606.00 1317.00,606.00
             1316.06,613.30 1312.27,615.87 1309.02,622.00
             1309.02,622.00 1302.14,636.00 1302.14,636.00
             1302.14,636.00 1299.87,643.00 1299.87,643.00
             1299.87,643.00 1296.58,650.00 1296.58,650.00
             1292.45,660.21 1292.58,670.73 1291.37,675.00
             1291.37,675.00 1283.41,694.00 1283.41,694.00
             1283.41,694.00 1278.91,702.00 1278.91,702.00
             1277.16,706.04 1275.59,713.62 1274.55,718.00
             1274.55,718.00 1271.48,727.00 1271.48,727.00
             1271.48,727.00 1265.51,745.01 1265.51,745.01
             1265.51,745.01 1261.42,754.17 1261.42,754.17
             1260.04,758.26 1259.71,763.43 1256.00,766.00
             1256.65,774.12 1252.91,775.81 1249.36,781.85
             1249.36,781.85 1246.20,787.71 1246.20,787.71
             1246.20,787.71 1241.78,792.76 1241.78,792.76
             1241.78,792.76 1238.49,797.83 1238.49,797.83
             1238.49,797.83 1234.06,802.51 1234.06,802.51
             1234.06,802.51 1230.14,808.58 1230.14,808.58
             1230.14,808.58 1225.55,813.98 1225.55,813.98
             1221.51,819.52 1220.71,825.64 1212.00,830.00
             1211.75,834.94 1210.27,835.18 1207.54,838.96
             1201.90,846.79 1195.52,852.01 1189.06,859.00
             1189.06,859.00 1182.05,868.08 1182.05,868.08
             1182.05,868.08 1162.39,888.04 1162.39,888.04
             1162.39,888.04 1157.70,895.00 1157.70,895.00
             1157.70,895.00 1144.46,908.55 1144.46,908.55
             1144.46,908.55 1137.91,913.21 1137.91,913.21
             1137.91,913.21 1125.00,926.00 1125.00,926.00
             1120.93,930.07 1117.66,932.35 1116.00,938.00
             1116.00,938.00 1094.71,959.09 1094.71,959.09
             1094.71,959.09 1082.87,973.00 1082.87,973.00
             1082.87,973.00 1071.45,985.00 1071.45,985.00
             1071.45,985.00 1061.51,998.99 1061.51,998.99
             1061.51,998.99 1056.41,1004.42 1056.41,1004.42
             1056.41,1004.42 1047.00,1020.00 1047.00,1020.00
             1047.00,1020.00 1057.00,1023.79 1057.00,1023.79
             1057.00,1023.79 1064.00,1027.05 1064.00,1027.05
             1064.00,1027.05 1092.00,1037.79 1092.00,1037.79
             1092.00,1037.79 1097.72,1040.56 1097.72,1040.56
             1097.72,1040.56 1104.01,1042.62 1104.01,1042.62
             1104.01,1042.62 1130.00,1052.01 1130.00,1052.01
             1130.00,1052.01 1137.58,1054.75 1137.58,1054.75
             1137.58,1054.75 1143.01,1055.57 1143.01,1055.57
             1143.01,1055.57 1149.00,1057.70 1149.00,1057.70
             1149.00,1057.70 1155.72,1058.43 1155.72,1058.43
             1155.72,1058.43 1163.42,1061.78 1163.42,1061.78
             1163.42,1061.78 1182.91,1067.47 1182.91,1067.47
             1182.91,1067.47 1193.00,1071.83 1193.00,1071.83
             1197.40,1073.22 1203.13,1073.18 1206.00,1077.00
             1213.26,1075.33 1211.87,1077.23 1218.00,1078.72
             1218.00,1078.72 1228.00,1081.08 1228.00,1081.08
             1228.00,1081.08 1234.96,1081.08 1234.96,1081.08
             1234.96,1081.08 1240.28,1082.91 1240.28,1082.91
             1242.48,1083.28 1244.11,1082.73 1247.00,1083.54
             1249.71,1084.30 1250.54,1085.39 1254.00,1086.08
             1254.00,1086.08 1263.00,1086.08 1263.00,1086.08
             1266.29,1087.07 1267.71,1088.93 1271.00,1089.69
             1271.00,1089.69 1278.00,1090.27 1278.00,1090.27
             1278.00,1090.27 1285.00,1092.59 1285.00,1092.59
             1285.00,1092.59 1294.00,1093.26 1294.00,1093.26
             1304.98,1095.06 1301.79,1097.04 1316.00,1097.00
             1316.00,1097.00 1329.00,1097.00 1329.00,1097.00
             1333.07,1097.01 1345.69,1098.86 1348.40,1101.60
             1350.26,1103.48 1349.84,1106.58 1350.26,1109.00
             1351.16,1114.30 1355.59,1122.90 1341.00,1123.13
             1341.00,1123.13 1334.00,1123.13 1334.00,1123.13
             1329.97,1123.92 1317.22,1127.14 1314.00,1126.73
             1308.94,1126.08 1311.48,1125.02 1302.00,1125.00
             1298.57,1124.99 1292.49,1125.34 1289.43,1124.30
             1284.05,1122.48 1279.78,1118.29 1274.99,1115.50
             1270.63,1112.97 1260.96,1110.18 1255.91,1109.07
             1255.91,1109.07 1249.00,1109.07 1249.00,1109.07
             1249.00,1109.07 1237.00,1106.71 1237.00,1106.71
             1237.00,1106.71 1232.00,1104.95 1232.00,1104.95
             1232.00,1104.95 1227.17,1104.05 1227.17,1104.05
             1227.17,1104.05 1222.83,1102.49 1222.83,1102.49
             1222.83,1102.49 1217.00,1101.55 1217.00,1101.55
             1217.00,1101.55 1200.09,1097.72 1200.09,1097.72
             1200.09,1097.72 1193.92,1095.29 1193.92,1095.29
             1193.92,1095.29 1175.00,1091.26 1175.00,1091.26
             1175.00,1091.26 1169.00,1090.51 1169.00,1090.51
             1169.00,1090.51 1157.00,1086.45 1157.00,1086.45
             1157.00,1086.45 1141.00,1083.55 1141.00,1083.55
             1141.00,1083.55 1129.00,1079.49 1129.00,1079.49
             1129.00,1079.49 1114.00,1076.29 1114.00,1076.29
             1114.00,1076.29 1099.00,1070.33 1099.00,1070.33
             1099.00,1070.33 1066.00,1059.65 1066.00,1059.65
             1066.00,1059.65 1058.00,1056.49 1058.00,1056.49
             1044.73,1051.82 1030.72,1047.92 1017.31,1045.00
             1017.31,1045.00 1017.31,1067.00 1017.31,1067.00
             1018.26,1071.77 1020.80,1079.02 1017.31,1083.45
             1014.54,1087.60 1007.63,1087.99 1003.00,1088.00
             1003.00,1088.00 923.00,1088.00 923.00,1088.00
             923.00,1088.00 896.00,1088.00 896.00,1088.00
             889.33,1087.89 889.76,1086.66 885.00,1086.13
             879.89,1085.56 878.79,1086.64 873.00,1085.00
             876.20,1074.72 874.93,1063.68 875.00,1053.00
             875.08,1040.46 883.20,1040.26 893.00,1037.04
             893.00,1037.04 903.00,1032.74 903.00,1032.74
             903.00,1032.74 920.00,1027.51 920.00,1027.51
             920.00,1027.51 927.96,1023.64 927.96,1023.64
             933.58,1021.02 941.66,1019.50 942.93,1012.06
             943.47,1008.90 940.02,1007.71 937.72,1006.62
             937.72,1006.62 920.96,998.12 920.96,998.12
             920.96,998.12 893.00,978.97 893.00,978.97
             886.18,976.53 876.05,980.07 870.31,975.18
             867.57,972.85 868.25,970.15 867.97,967.00
             866.86,960.61 864.10,956.68 867.97,950.02
             869.11,948.43 870.35,946.89 872.05,946.04
             875.17,944.48 877.90,946.24 881.00,946.87
             881.00,946.87 894.00,946.87 894.00,946.87
             902.69,947.16 900.31,949.84 909.00,950.00
             909.00,950.00 933.00,950.00 933.00,950.00
             941.17,949.85 942.51,946.09 946.98,947.62
             953.79,949.95 952.18,956.50 949.00,961.00
             954.56,964.80 952.25,964.24 955.54,967.74
             958.18,970.55 967.06,976.45 971.00,976.61
             977.05,976.86 980.77,969.58 986.57,965.01
             986.57,965.01 992.25,961.22 992.25,961.22
             992.25,961.22 1008.96,944.71 1008.96,944.71
             1011.76,941.62 1011.55,940.69 1013.54,938.02
             1013.54,938.02 1020.28,930.95 1020.28,930.95
             1025.03,926.10 1030.14,919.11 1037.00,918.00
             1038.05,911.52 1044.53,905.05 1051.00,904.00
             1052.07,897.47 1053.75,898.69 1058.26,895.22
             1058.26,895.22 1063.72,890.09 1063.72,890.09
             1063.72,890.09 1082.60,871.00 1082.60,871.00
             1082.60,871.00 1088.14,863.00 1088.14,863.00
             1088.14,863.00 1096.74,854.00 1096.74,854.00
             1096.74,854.00 1125.50,813.72 1125.50,813.72
             1125.50,813.72 1132.19,801.10 1132.19,801.10
             1134.71,797.45 1137.49,796.67 1141.55,790.71
             1141.55,790.71 1146.53,782.00 1146.53,782.00
             1146.53,782.00 1154.00,770.83 1154.00,770.83
             1154.00,770.83 1170.31,741.00 1170.31,741.00
             1170.31,741.00 1174.87,732.00 1174.87,732.00
             1174.87,732.00 1177.12,725.00 1177.12,725.00
             1177.12,725.00 1183.58,709.96 1183.58,709.96
             1187.67,699.90 1191.06,689.08 1193.73,678.58
             1193.73,678.58 1194.55,673.00 1194.55,673.00
             1194.55,673.00 1198.54,661.83 1198.54,661.83
             1199.59,657.64 1198.11,656.92 1202.00,654.00
             1200.17,647.32 1203.65,643.39 1205.29,637.00
             1205.29,637.00 1206.28,630.04 1206.28,630.04
             1207.74,622.77 1207.64,629.67 1208.02,619.00
             1208.27,611.85 1210.71,614.62 1211.00,606.00 Z
           M 507.15,681.02
           C 513.56,678.77 517.36,681.61 521.48,686.58
             521.48,686.58 538.31,719.00 538.31,719.00
             538.31,719.00 544.99,730.00 544.99,730.00
             544.99,730.00 559.96,759.96 559.96,759.96
             559.96,759.96 565.04,768.04 565.04,768.04
             565.04,768.04 584.31,807.00 584.31,807.00
             584.31,807.00 589.88,816.00 589.88,816.00
             589.88,816.00 597.62,831.72 597.62,831.72
             597.62,831.72 606.27,849.00 606.27,849.00
             608.52,852.90 610.58,853.21 610.95,858.04
             611.41,864.03 609.50,870.09 602.00,868.68
             596.79,867.70 595.56,863.07 593.38,859.00
             593.38,859.00 578.97,832.42 578.97,832.42
             578.97,832.42 570.64,815.85 570.64,815.85
             570.64,815.85 565.82,808.83 565.82,808.83
             565.82,808.83 550.41,778.00 550.41,778.00
             550.41,778.00 544.59,769.00 544.59,769.00
             544.59,769.00 540.99,761.00 540.99,761.00
             540.99,761.00 526.65,732.83 526.65,732.83
             526.65,732.83 521.70,725.00 521.70,725.00
             521.70,725.00 506.43,694.00 506.43,694.00
             504.03,688.95 502.47,685.17 507.15,681.02 Z
           M 990.00,683.02
           C 996.25,681.01 1001.26,684.03 1000.77,691.00
             1000.51,694.73 996.89,701.45 994.89,704.72
             994.89,704.72 987.18,717.96 987.18,717.96
             987.18,717.96 981.86,729.00 981.86,729.00
             981.86,729.00 977.12,736.00 977.12,736.00
             977.12,736.00 968.41,753.00 968.41,753.00
             968.41,753.00 963.36,760.83 963.36,760.83
             963.36,760.83 953.71,779.91 953.71,779.91
             953.71,779.91 949.72,785.32 949.72,785.32
             949.72,785.32 946.43,792.56 946.43,792.56
             946.43,792.56 941.87,800.75 941.87,800.75
             941.87,800.75 938.16,808.83 938.16,808.83
             938.16,808.83 933.36,815.85 933.36,815.85
             933.36,815.85 928.75,825.71 928.75,825.71
             928.75,825.71 918.30,843.96 918.30,843.96
             916.40,847.38 914.74,852.89 910.94,854.40
             905.79,856.45 897.22,853.81 898.60,847.00
             899.34,843.33 903.74,837.26 905.74,834.00
             905.74,834.00 913.37,819.00 913.37,819.00
             913.37,819.00 923.62,801.00 923.62,801.00
             923.62,801.00 930.10,788.00 930.10,788.00
             930.10,788.00 935.80,779.00 935.80,779.00
             935.80,779.00 944.02,762.58 944.02,762.58
             944.02,762.58 950.45,752.00 950.45,752.00
             950.45,752.00 958.59,736.00 958.59,736.00
             958.59,736.00 964.12,727.28 964.12,727.28
             964.12,727.28 974.59,706.00 974.59,706.00
             974.59,706.00 979.64,698.17 979.64,698.17
             983.41,691.57 983.01,687.82 990.00,683.02 Z
           M 682.00,886.00
           C 684.80,882.26 686.54,883.01 691.00,883.00
             691.00,883.00 726.00,883.00 726.00,883.00
             726.00,883.00 749.00,883.00 749.00,883.00
             759.24,882.98 756.76,881.02 767.00,881.00
             767.00,881.00 827.00,881.00 827.00,881.00
             836.63,880.98 834.10,879.79 840.00,879.06
             840.00,879.06 856.00,879.06 856.00,879.06
             858.77,879.01 862.44,878.71 864.69,880.60
             867.76,883.18 867.68,888.90 863.67,891.07
             861.45,892.26 857.52,891.99 855.00,892.00
             844.08,892.03 848.66,893.95 839.00,894.00
             839.00,894.00 778.00,894.00 778.00,894.00
             764.91,894.02 770.29,896.93 759.00,897.00
             759.00,897.00 714.00,897.00 714.00,897.00
             707.14,897.00 695.16,897.75 689.00,896.00
             686.88,899.17 685.70,898.93 682.00,899.00
             682.00,899.00 650.00,899.00 650.00,899.00
             638.78,898.79 638.36,890.24 643.15,886.74
             645.47,885.04 648.26,885.04 651.00,885.00
             651.00,885.00 675.00,885.00 675.00,885.00
             678.06,885.05 679.05,885.16 682.00,886.00 Z" />
</svg>
